<svg width="16" height="16" viewBox="0 0 16 16" fill="none" xmlns="http://www.w3.org/2000/svg">
    <path d="M15.3792 3.88242L15.442 4.27569C15.4512 4.37747 15.4588 4.47954 15.4648 4.58182L15.4647 4.58182L15.4652 4.58899C15.4973 5.0303 15.5131 5.64959 15.4866 6.40043C15.4547 7.1461 15.3726 8.01347 15.1903 8.92335C15.0938 9.37795 14.9767 9.84186 14.8328 10.2927C14.8158 10.3406 14.7992 10.3879 14.7827 10.4348C14.6315 10.8643 14.4956 11.2506 14.3061 11.6043L14.297 11.6212L14.2893 11.6387C14.1071 12.0517 13.869 12.4223 13.6098 12.799L13.5999 12.8133L13.5911 12.8283C13.4954 12.9905 13.3789 13.1337 13.2431 13.284C13.202 13.3295 13.1543 13.3805 13.1038 13.4347C13.0066 13.5388 12.8987 13.6544 12.8069 13.7631C12.6966 13.8856 12.5748 13.9902 12.4381 14.0978C12.3981 14.1293 12.3527 14.164 12.3047 14.2007C12.2027 14.2789 12.089 14.3659 11.9904 14.4497L11.9903 14.4495L11.9801 14.4586C11.8853 14.5437 11.782 14.6086 11.6593 14.6747C11.6281 14.6915 11.5887 14.7118 11.5451 14.7342C11.4528 14.7817 11.3417 14.8388 11.2498 14.8934C11.1879 14.9258 11.1282 14.9584 11.0738 14.9881L11.0667 14.992C11.0048 15.0257 10.9505 15.0553 10.8986 15.0819C10.7914 15.137 10.7212 15.1655 10.6706 15.178L10.6501 15.183L10.6302 15.1898C10.5044 15.2324 10.4016 15.2662 10.3048 15.2981C10.2531 15.3152 10.203 15.3316 10.1521 15.3486L9.93619 14.1896L9.99845 14.1549L10.0001 14.154L10.4106 13.9275C10.5458 13.8651 10.6608 13.7811 10.7491 13.7121C10.7923 13.6783 10.8355 13.6429 10.8743 13.6112L10.8872 13.6006C10.931 13.5647 10.9704 13.5327 11.0098 13.5024L11.0245 13.4911L11.0383 13.4788C11.0824 13.4394 11.1209 13.4111 11.1755 13.3709C11.2085 13.3467 11.2474 13.3181 11.2968 13.2802C11.4086 13.1945 11.545 13.0806 11.668 12.9198C11.718 12.8584 11.7692 12.8049 11.8355 12.7357C11.861 12.7091 11.8887 12.6802 11.9194 12.6476C12.0224 12.5384 12.1446 12.4016 12.2517 12.229L12.256 12.222L12.26 12.2149C12.3043 12.138 12.3496 12.0738 12.4082 11.9909C12.4332 11.9556 12.4606 11.9168 12.4913 11.8722C12.5814 11.7414 12.6851 11.5796 12.7644 11.3789C12.7666 11.3744 12.7688 11.3699 12.771 11.3654C12.9018 11.0993 13.0531 10.7915 13.1546 10.4357C13.256 10.175 13.3178 9.89648 13.3692 9.66487L13.3708 9.65747L13.5363 8.91226L12.787 9.05837L12.7647 9.06273C12.5916 9.09653 12.4786 9.1186 12.3643 9.1186H12.3641C11.8174 9.11884 11.2652 8.91258 10.7718 8.49581C10.276 8.07709 9.86252 7.46395 9.59527 6.71428C9.32829 5.96536 9.22329 5.12422 9.29647 4.29097C9.36968 3.45743 9.61699 2.67873 10 2.04395C10.3832 1.40898 10.8786 0.955663 11.4138 0.711515C11.9446 0.469386 12.5067 0.435539 13.045 0.607933C13.5875 0.781676 14.1057 1.16561 14.5272 1.74403C14.9489 2.3228 15.2485 3.06294 15.3792 3.88242ZM6.60545 3.88242L6.66848 4.27736C6.67778 4.37854 6.68559 4.47997 6.69189 4.58161L6.69186 4.58161L6.69224 4.58685C6.72426 5.02816 6.74012 5.64745 6.71364 6.39829C6.68174 7.14397 6.59957 8.01135 6.41728 8.92124C6.32082 9.37583 6.20374 9.83972 6.05977 10.2905C6.04284 10.3384 6.02618 10.3858 6.0097 10.4326C5.85856 10.8622 5.72265 11.2484 5.53307 11.6022L5.52403 11.619L5.51631 11.6365C5.33407 12.0496 5.09596 12.4201 4.8368 12.7968L4.82694 12.8112L4.8181 12.8261C4.72237 12.9884 4.60591 13.1316 4.47008 13.2819C4.42901 13.3273 4.38134 13.3784 4.33082 13.4325C4.23356 13.5367 4.12571 13.6522 4.03391 13.7609C3.92357 13.8834 3.80185 13.988 3.66511 14.0956C3.62506 14.1272 3.57968 14.1619 3.53175 14.1986C3.4297 14.2767 3.31604 14.3638 3.2174 14.4475L3.21728 14.4474L3.20713 14.4565C3.11235 14.5415 3.00903 14.6064 2.88634 14.6726C2.85512 14.6894 2.81569 14.7097 2.77206 14.7321C2.67978 14.7796 2.56873 14.8367 2.47682 14.8912C2.41492 14.9236 2.35514 14.9563 2.30078 14.9859L2.29368 14.9898C2.23181 15.0236 2.17754 15.0531 2.12559 15.0798C2.01841 15.1349 1.94817 15.1633 1.89759 15.1758L1.87713 15.1809L1.85716 15.1876C1.73137 15.2303 1.62857 15.2641 1.5318 15.296C1.48004 15.313 1.43 15.3295 1.3791 15.3465L1.16339 14.1885C1.18254 14.178 1.20249 14.1671 1.22321 14.1558L1.22466 14.1549L1.63678 13.9275C1.77196 13.8651 1.88701 13.7811 1.97534 13.7121C2.01851 13.6783 2.06175 13.6429 2.10046 13.6112L2.1134 13.6006C2.15718 13.5647 2.19658 13.5327 2.23603 13.5024L2.25072 13.4911L2.26454 13.4788C2.30858 13.4394 2.34711 13.4111 2.40173 13.3709C2.43471 13.3467 2.47357 13.3181 2.52304 13.2802C2.63481 13.1945 2.77118 13.0806 2.89426 12.9198C2.94417 12.8584 2.99544 12.8049 3.06172 12.7357C3.0872 12.7091 3.11489 12.6802 3.14558 12.6476C3.24856 12.5384 3.37085 12.4016 3.47787 12.229L3.48218 12.222L3.48626 12.2149C3.5305 12.138 3.57585 12.0738 3.63441 11.9909C3.65939 11.9556 3.68678 11.9168 3.71751 11.8722C3.80761 11.7414 3.9113 11.5796 3.99058 11.3789C3.99278 11.3744 3.99499 11.3699 3.99721 11.3654C4.12804 11.0993 4.27933 10.7915 4.3808 10.4357C4.4822 10.175 4.54402 9.89646 4.59542 9.66485L4.59706 9.65747L4.76247 8.91227L4.01324 9.05837C4.00568 9.05984 3.99825 9.0613 3.99091 9.06273C3.81779 9.09653 3.70476 9.1186 3.59049 9.1186H3.59026C3.04356 9.11884 2.49142 8.91258 1.99797 8.49581C1.50219 8.07709 1.08873 7.46395 0.821483 6.71428C0.5545 5.96536 0.449501 5.12422 0.522682 4.29097C0.595888 3.45743 0.843202 2.67873 1.22623 2.04395C1.60936 1.40898 2.10482 0.955663 2.64003 0.711515C3.17081 0.469386 3.73288 0.435539 4.27118 0.607933C4.81368 0.781676 5.33192 1.16561 5.75339 1.74403C6.17512 2.3228 6.47467 3.06294 6.60545 3.88242Z" stroke="white"/>
</svg>
