<svg viewBox="0 0 201 204" fill="none" xmlns="http://www.w3.org/2000/svg">
<path d="M119.219 47.173L119.546 46.6548L118.972 46.4386L96.7899 38.0679L116.196 18.3003L139.022 31.7198L110.935 60.3148L119.219 47.173ZM166.669 117.387L167.004 117.579L167.274 117.303L172.178 112.294L166.788 130.957L147.182 151.989L147.048 152.133V152.33V203.485H44.3413L56.8841 141.228L56.9322 140.989L56.7736 140.804L0.66961 75.3214L45.1461 27.331L106.125 50.3433L97.1031 64.6451L77.1821 66.0567L55.3001 57.7136L54.4846 57.4027L54.6289 58.2635L56.8603 71.5753L56.9096 71.8692L57.1915 71.9657L79.329 79.5452L111.413 134.849L111.575 135.13L111.897 135.096L121.113 134.125L121.881 134.044L121.493 133.376L86.8168 73.6243L86.7227 73.4621L86.5451 73.4018L86.3489 73.3352L89.2583 73.1287L166.669 117.387ZM165.127 106.668L142.105 93.1194L176.433 58.1536L199.455 71.6856L165.127 106.668ZM109.828 74.2648L146.376 37.0161L170.591 51.2347L134.042 88.4834L109.828 74.2648ZM58.6714 23.6769L81.2908 0.628946L106.421 15.3997L87.5891 34.5872L58.6714 23.6769Z" fill="#5D5D72" stroke="#5D5D72"/>
</svg>
