<svg width="109" height="204" viewBox="0 0 109 204" fill="none" xmlns="http://www.w3.org/2000/svg">
<g filter="url(#filter0_d_18_176)">
<path d="M72.7431 93.2257L90.2913 57.5247L102.262 71.579L84.7138 107.297L72.7431 93.2257ZM69.1513 89.1122L87.8112 51.1278L75.2428 36.3873L56.583 74.3717L69.1513 89.1122ZM61.4763 46.9064L56.0858 63.9864L72.0058 31.6134L60.1328 17.6714L50.0111 38.2649L61.4763 46.9064ZM55.6837 15.293L42.6572 0L30.9268 23.874L45.9166 35.1701L55.6837 15.293ZM85.5684 116.953L46.7462 72.6192L43.9755 73.012L45.2491 73.8753L62.6102 133.627L57.9962 134.598L41.8864 79.1327L30.7145 71.4926L29.5973 58.1808L40.6044 66.5633L50.7596 65.1259L55.5077 50.0919L24.5337 26.7445L2 75.3083L30.2341 141.129L23.8941 203.985H75.8712V152.33L85.7276 131.21L88.7189 110.526L85.5684 116.953Z" fill="#5D5D72"/>
<path d="M61.9531 47.0569L62.0595 46.7198L61.7772 46.5071L50.6422 38.1145L60.2458 18.5752L71.4121 31.6875L58.5476 57.8473L61.9531 47.0569ZM85.1923 117.282L85.6869 117.847L86.0174 117.173L87.7692 113.599L85.2433 131.066L75.4181 152.119L75.3712 152.219V152.33V203.485H24.4471L30.7316 141.179L30.7446 141.051L30.6936 140.932L2.54749 75.3163L24.7268 27.5162L54.9244 50.2784L50.3777 64.675L40.7412 66.039L29.9003 57.7831L29.005 57.1012L29.0991 58.2227L30.2163 71.5345L30.2361 71.7712L30.4323 71.9054L41.4562 79.4442L57.5161 134.738L57.6454 135.183L58.0992 135.088L62.7132 134.117L63.2408 134.006L63.0904 133.488L45.7293 73.7358L45.6789 73.5626L45.5297 73.4614L45.3287 73.3252L46.5483 73.1523L85.1923 117.282ZM84.6009 106.393L73.3366 93.1517L90.4043 58.4284L101.668 71.6532L84.6009 106.393ZM75.3561 37.2908L87.2175 51.2022L69.0381 88.2087L57.1766 74.2972L75.3561 37.2908ZM45.7346 34.4068L31.5578 23.7235L42.7703 0.903778L55.0901 15.3673L45.7346 34.4068Z" stroke="#5D5D72"/>
</g>
<defs>
<filter id="filter0_d_18_176" x="0" y="-2" width="108.262" height="211.985" filterUnits="userSpaceOnUse" color-interpolation-filters="sRGB">
<feFlood flood-opacity="0" result="BackgroundImageFix"/>
<feColorMatrix in="SourceAlpha" type="matrix" values="0 0 0 0 0 0 0 0 0 0 0 0 0 0 0 0 0 0 127 0" result="hardAlpha"/>
<feOffset dx="2" dy="2"/>
<feGaussianBlur stdDeviation="2"/>
<feComposite in2="hardAlpha" operator="out"/>
<feColorMatrix type="matrix" values="0 0 0 0 0 0 0 0 0 0 0 0 0 0 0 0 0 0 0.5 0"/>
<feBlend mode="normal" in2="BackgroundImageFix" result="effect1_dropShadow_18_176"/>
<feBlend mode="normal" in="SourceGraphic" in2="effect1_dropShadow_18_176" result="shape"/>
</filter>
</defs>
</svg>
