<svg width="16" height="16" viewBox="0 0 16 16" fill="none" xmlns="http://www.w3.org/2000/svg">
    <path d="M3.59194 6.88076H3.59198C4.12848 6.88071 4.67163 7.08578 5.15823 7.50207C5.64723 7.92042 6.05569 8.53356 6.31982 9.28399C6.58364 10.0336 6.6874 10.8756 6.61499 11.7096C6.54256 12.5441 6.29802 13.3233 5.91956 13.9583C5.54093 14.5936 5.05197 15.0461 4.52522 15.2894C4.00327 15.5305 3.45129 15.5641 2.92252 15.3927C2.38915 15.2198 1.87806 14.8372 1.46164 14.2588C1.04502 13.6801 0.748776 12.9396 0.619334 12.1193L0.558261 11.7322C0.54922 11.6344 0.540711 11.5281 0.534899 11.4209L0.534975 11.4209L0.534353 11.4122C0.502707 10.9706 0.487048 10.3511 0.513205 9.60001C0.544721 8.85401 0.625914 7.98623 0.806047 7.0759C0.901357 6.6211 1.01705 6.15697 1.15933 5.70593C1.17606 5.65803 1.19252 5.61065 1.20881 5.56378C1.35808 5.13422 1.49242 4.74765 1.67978 4.39371L1.68866 4.37692L1.69625 4.35951C1.87635 3.94618 2.11163 3.57554 2.36759 3.19884L2.37747 3.1843L2.3863 3.16909C2.4809 3.00634 2.59589 2.86299 2.72988 2.71274C2.77051 2.66718 2.81783 2.61584 2.86802 2.56137C2.9639 2.45735 3.07028 2.34193 3.16059 2.23365C3.26942 2.11133 3.38947 2.00689 3.52438 1.89939C3.56383 1.86795 3.60858 1.83326 3.65589 1.79658C3.75674 1.71839 3.86922 1.63119 3.96674 1.54735L3.96685 1.54747L3.97617 1.53903C4.06991 1.45426 4.17185 1.38941 4.29248 1.32352C4.32366 1.30649 4.36386 1.28557 4.40849 1.26234C4.49899 1.21524 4.60771 1.15865 4.69631 1.10586C4.75777 1.0733 4.8171 1.04051 4.87098 1.01074L4.87807 1.00682C4.9392 0.973045 4.99272 0.943557 5.04392 0.916923C5.14969 0.861908 5.21825 0.833902 5.26696 0.82171L5.28763 0.816537L5.30778 0.809626C5.43212 0.766977 5.53345 0.733186 5.62889 0.70136C5.677 0.685321 5.7236 0.66978 5.7709 0.653856L5.98437 1.81108L5.92349 1.84541L5.92181 1.84636L5.5167 2.07271C5.38238 2.13559 5.26833 2.21988 5.18114 2.28888C5.13843 2.32268 5.09567 2.35816 5.05743 2.38989C5.05312 2.39346 5.04887 2.39699 5.04469 2.40046C5.00144 2.43632 4.96258 2.46832 4.92369 2.49857L4.90903 2.50997L4.89526 2.52242C4.8519 2.56163 4.81409 2.58979 4.7603 2.62984C4.72772 2.6541 4.68928 2.68272 4.64019 2.72081C4.52955 2.80667 4.39464 2.92081 4.27296 3.08169C4.2237 3.14306 4.17314 3.1965 4.10769 3.26567C4.08253 3.29227 4.05516 3.32119 4.02482 3.35379C3.92301 3.46316 3.8022 3.59998 3.69651 3.77259L3.69227 3.77953L3.68825 3.7866C3.64452 3.86353 3.5997 3.92778 3.54185 4.01071C3.51717 4.04608 3.49013 4.08485 3.45979 4.12945C3.37073 4.26035 3.26841 4.42203 3.19023 4.62244C3.18805 4.62692 3.18587 4.63141 3.18368 4.63592C3.05438 4.90225 2.90504 5.20986 2.80492 5.56539C2.70484 5.82584 2.64383 6.10416 2.59303 6.3359L2.59144 6.34316L2.42802 7.08858L3.17669 6.94076C3.18389 6.93934 3.19099 6.93794 3.19798 6.93656C3.36969 6.90262 3.48027 6.88076 3.59194 6.88076ZM12.2582 6.88076H12.2582C12.7947 6.88071 13.3379 7.08578 13.8245 7.50207C14.3135 7.92042 14.7219 8.53356 14.986 9.28399C15.2499 10.0336 15.3536 10.8756 15.2812 11.7096C15.2088 12.5441 14.9642 13.3233 14.5858 13.9584C14.2072 14.5936 13.7182 15.0461 13.1915 15.2894C12.6695 15.5305 12.1175 15.5641 11.5888 15.3927C11.0554 15.2198 10.5443 14.8372 10.1279 14.2588C9.71125 13.6801 9.41501 12.9396 9.28556 12.1193L9.22449 11.7322C9.21545 11.6344 9.20694 11.5281 9.20113 11.4209L9.2012 11.4209L9.20058 11.4122C9.16894 10.9706 9.15328 10.3511 9.17943 9.60001C9.21095 8.854 9.29214 7.9862 9.47229 7.07585C9.5676 6.62106 9.68329 6.15694 9.82556 5.70591C9.84229 5.65801 9.85876 5.61063 9.87504 5.56377C10.0243 5.13421 10.1586 4.74765 10.346 4.39371L10.3549 4.37692L10.3625 4.35951C10.5426 3.94618 10.7779 3.57553 11.0338 3.19884L11.0435 3.18453L11.0522 3.16958C11.1469 3.00724 11.2619 2.86407 11.396 2.71383C11.4365 2.66843 11.4835 2.6174 11.5334 2.56329C11.6295 2.45909 11.7361 2.34347 11.8268 2.23471C11.9357 2.1124 12.0557 2.00796 12.1906 1.90046C12.2301 1.86902 12.2748 1.83432 12.3221 1.79764C12.423 1.71946 12.5355 1.63226 12.633 1.54842L12.6331 1.54856L12.6432 1.53937C12.7364 1.45468 12.838 1.39008 12.9589 1.32413C12.9894 1.30745 13.0282 1.28726 13.0712 1.26489C13.1624 1.2174 13.2725 1.16005 13.3635 1.10537C13.4246 1.07297 13.4836 1.04035 13.5372 1.01072L13.5443 1.00682C13.6054 0.973045 13.659 0.943557 13.7102 0.916923C13.8159 0.861908 13.8845 0.833902 13.9332 0.82171L13.9539 0.816537L13.974 0.809626C14.0983 0.766977 14.1997 0.733185 14.2951 0.701359C14.3432 0.685319 14.3898 0.669779 14.4371 0.653856L14.6506 1.81108L14.5897 1.84541L14.588 1.84636L14.1829 2.07271C14.0486 2.13559 13.9346 2.21988 13.8474 2.28888C13.8047 2.32268 13.7619 2.35817 13.7236 2.38991L13.7109 2.40046C13.6677 2.43632 13.6288 2.46832 13.5899 2.49857L13.5753 2.50997L13.5615 2.52242C13.5181 2.56163 13.4803 2.58979 13.4265 2.62984C13.394 2.6541 13.3555 2.68272 13.3064 2.72081C13.1958 2.80667 13.0609 2.92082 12.9392 3.08169C12.8899 3.14306 12.8394 3.1965 12.7739 3.26566C12.7488 3.29226 12.7214 3.32119 12.691 3.35379C12.5892 3.46316 12.4684 3.59998 12.3627 3.77259L12.3585 3.77953L12.3545 3.7866C12.3108 3.86352 12.2659 3.92778 12.2081 4.01071C12.1834 4.04608 12.1564 4.08485 12.126 4.12945C12.037 4.26035 11.9346 4.42203 11.8565 4.62243C11.8543 4.62691 11.8521 4.6314 11.8499 4.63591C11.7206 4.90225 11.5713 5.20986 11.4711 5.5654C11.3711 5.82585 11.3101 6.10417 11.2593 6.3359L11.2577 6.34316L11.0943 7.08858L11.8429 6.94076L11.8642 6.93656C12.0359 6.90262 12.1465 6.88076 12.2582 6.88076Z" stroke="white"/>
</svg>
